<?xml version="1.0" standalone="no"?>
<!DOCTYPE svg PUBLIC "-//W3C//DTD SVG 20010904//EN"
 "http://www.w3.org/TR/2001/REC-SVG-20010904/DTD/svg10.dtd">
<svg version="1.0" xmlns="http://www.w3.org/2000/svg"
 width="932.000000pt" height="980.000000pt" viewBox="0 0 932.000000 980.000000"
 preserveAspectRatio="xMidYMid meet">
<metadata>
Created by potrace 1.16, written by Peter Selinger 2001-2019
</metadata>
<g transform="translate(0.000000,980.000000) scale(0.100000,-0.100000)"
fill="#000000" stroke="none">
<path d="M4285 8796 c-239 -45 -535 -168 -738 -305 -460 -310 -802 -777 -932
-1274 -33 -127 -43 -231 -56 -610 -11 -337 -1 -868 22 -1077 34 -314 217 -714
461 -1005 311 -370 687 -615 1138 -738 l115 -32 340 0 c280 0 356 3 431 17
250 48 580 201 820 381 59 44 164 137 233 207 262 262 422 518 531 848 98 296
110 416 110 1072 0 656 -12 776 -110 1072 -109 330 -269 586 -531 848 -69 70
-174 163 -233 207 -235 177 -567 332 -810 379 -112 22 -690 29 -791 10z m743
-470 c193 -39 438 -150 602 -274 110 -83 263 -234 341 -337 141 -184 244 -420
284 -653 59 -340 59 -1224 0 -1564 -31 -178 -105 -375 -196 -525 -150 -245
-407 -482 -654 -603 -273 -133 -376 -155 -740 -155 -285 0 -345 6 -505 51
-113 32 -362 158 -480 242 -282 201 -505 524 -594 862 -38 141 -54 297 -68
620 -13 323 -1 772 27 988 37 279 135 522 307 754 233 314 650 561 1026 607
124 15 552 6 650 -13z"/>
<path d="M3024 3719 c-398 -24 -945 -187 -1318 -395 -322 -180 -692 -486 -954
-789 -304 -354 -544 -824 -677 -1330 -59 -223 -66 -292 -72 -703 l-6 -374 64
-64 63 -64 4537 0 4537 0 51 60 c37 45 52 72 58 108 4 26 8 166 7 312 0 284
-12 413 -60 644 -228 1089 -1050 2023 -2121 2411 -296 108 -697 185 -968 188
-139 1 -175 -24 -271 -180 -150 -246 -236 -348 -392 -466 -248 -186 -525 -277
-847 -278 -373 -2 -703 129 -958 379 -104 102 -159 172 -257 327 -82 130 -119
178 -153 197 -30 16 -146 23 -263 17z m1 -488 c21 -12 53 -60 104 -152 355
-638 1121 -1944 1275 -2174 136 -204 219 -252 336 -192 79 39 144 135 483 707
425 720 590 1004 922 1593 96 169 135 229 151 233 52 13 372 -47 599 -112 840
-242 1546 -924 1818 -1759 84 -255 147 -613 147 -827 l0 -98 -4210 0 -4211 0
5 33 c3 17 8 75 11 127 46 735 335 1381 833 1861 413 399 905 646 1502 753
167 30 197 31 235 7z m2235 -809 c0 -19 -310 -555 -518 -895 l-84 -139 -20 29
c-83 122 -578 972 -578 992 0 7 8 10 18 7 192 -57 305 -71 582 -71 230 0 266
2 365 23 61 13 133 32 160 42 58 20 75 23 75 12z"/>
</g>
</svg>
